<?xml version="1.0" encoding="UTF-8" standalone="no"?>
<!-- Created with Inkscape (http://www.inkscape.org/) -->

<svg
   xmlns:dc="http://purl.org/dc/elements/1.1/"
   xmlns:cc="http://creativecommons.org/ns#"
   xmlns:rdf="http://www.w3.org/1999/02/22-rdf-syntax-ns#"
   xmlns:svg="http://www.w3.org/2000/svg"
   xmlns="http://www.w3.org/2000/svg"
   xmlns:sodipodi="http://sodipodi.sourceforge.net/DTD/sodipodi-0.dtd"
   xmlns:inkscape="http://www.inkscape.org/namespaces/inkscape"
   width="59.071667mm"
   height="3.9877999mm"
   viewBox="0 0 59.071667 3.9877999"
   version="1.1"
   id="svg8"
   inkscape:version="0.92.3 (2405546, 2018-03-11)"
   sodipodi:docname="e.svg">
  <defs
     id="defs2" />
  <sodipodi:namedview
     id="base"
     pagecolor="#ffffff"
     bordercolor="#666666"
     borderopacity="1.0"
     inkscape:pageopacity="0.0"
     inkscape:pageshadow="2"
     inkscape:zoom="2.8580442"
     inkscape:cx="140.5"
     inkscape:cy="-10.5"
     inkscape:document-units="mm"
     inkscape:current-layer="layer1"
     showgrid="false"
     inkscape:window-width="1440"
     inkscape:window-height="851"
     inkscape:window-x="0"
     inkscape:window-y="25"
     inkscape:window-maximized="1"
     fit-margin-top="0"
     fit-margin-left="0"
     fit-margin-right="0"
     fit-margin-bottom="0" />
  <metadata
     id="metadata5">
    <rdf:RDF>
      <cc:Work
         rdf:about="">
        <dc:format>image/svg+xml</dc:format>
        <dc:type
           rdf:resource="http://purl.org/dc/dcmitype/StillImage" />
        <dc:title></dc:title>
      </cc:Work>
    </rdf:RDF>
  </metadata>
  <g
     inkscape:label="Layer 1"
     inkscape:groupmode="layer"
     id="layer1"
     transform="translate(-47.212553,-111.52315)">
    <g
       aria-label="ad"
       style="fill:#ffffff;fill-opacity:1;stroke:none;stroke-width:0.26458332"
       id="group814">
      <path
         d="m 49.98962,112.42062 q 0.4191,0 0.656166,0.2413 0.2413,0.2413 0.2413,0.7112 v 1.29116 H 50.58652 v -1.26153 q 0,-0.34713 -0.169334,-0.52917 -0.1651,-0.18203 -0.4699,-0.18203 -0.347133,0 -0.5461,0.2159 -0.198966,0.21167 -0.198966,0.58843 v 1.1684 h -0.300567 v -1.26153 q 0,-0.34713 -0.169333,-0.52917 -0.1651,-0.18203 -0.474134,-0.18203 -0.3429,0 -0.546099,0.2159 -0.198967,0.21167 -0.198967,0.58843 v 1.1684 h -0.300567 v -2.22673 h 0.287867 v 0.4064 q 0.118533,-0.2032 0.3302,-0.31327 0.211666,-0.11006 0.486833,-0.11006 0.2794,0 0.4826,0.11853 0.207433,0.11853 0.309033,0.35137 0.122767,-0.22014 0.351367,-0.3429 0.232833,-0.127 0.529167,-0.127 z"
         style="stroke-width:0.26458332;fill:#ffffff"
         id="path816"
         inkscape:connector-curvature="0" />
      <path
         d="m 53.649336,113.64405 h -1.862667 q 0.0254,0.34713 0.2667,0.56303 0.2413,0.21167 0.6096,0.21167 0.207434,0 0.381,-0.072 0.173567,-0.0762 0.300567,-0.22013 l 0.169333,0.19473 q -0.148166,0.1778 -0.372533,0.27094 -0.220133,0.0931 -0.486833,0.0931 -0.3429,0 -0.6096,-0.14393 -0.262467,-0.14817 -0.410634,-0.4064 -0.148166,-0.25824 -0.148166,-0.5842 0,-0.32597 0.1397,-0.5842 0.143933,-0.25824 0.389466,-0.40217 0.249767,-0.14393 0.5588,-0.14393 0.309034,0 0.554567,0.14393 0.245533,0.14393 0.385233,0.40217 0.1397,0.254 0.1397,0.5842 z m -1.075267,-0.9652 q -0.321733,0 -0.541866,0.20743 -0.2159,0.2032 -0.245534,0.5334 h 1.579034 q -0.02963,-0.3302 -0.249767,-0.5334 -0.2159,-0.20743 -0.541867,-0.20743 z"
         style="stroke-width:0.26458332;fill:#ffffff"
         id="path818"
         inkscape:connector-curvature="0" />
      <path
         d="m 55.399886,112.42062 q 0.4191,0 0.664633,0.24553 0.249767,0.2413 0.249767,0.70697 v 1.29116 h -0.300567 v -1.26153 q 0,-0.34713 -0.173567,-0.52917 -0.173566,-0.18203 -0.4953,-0.18203 -0.359833,0 -0.5715,0.2159 -0.207433,0.21167 -0.207433,0.58843 v 1.1684 h -0.300567 v -3.14113 h 0.300567 v 1.30387 q 0.122767,-0.19474 0.338667,-0.30057 0.2159,-0.10583 0.4953,-0.10583 z"
         style="stroke-width:0.26458332;fill:#ffffff"
         id="path820"
         inkscape:connector-curvature="0" />
      <path
         d="m 59.174695,111.52315 v 3.14113 h -0.287866 v -0.44026 q -0.135467,0.22436 -0.359833,0.3429 -0.220134,0.11853 -0.499534,0.11853 -0.313266,0 -0.567266,-0.14393 -0.254,-0.14394 -0.397934,-0.40217 -0.143933,-0.25823 -0.143933,-0.58843 0,-0.3302 0.143933,-0.58844 0.143934,-0.25823 0.397934,-0.39793 0.254,-0.14393 0.567266,-0.14393 0.270934,0 0.486834,0.1143 0.220133,0.11006 0.359833,0.32596 v -1.33773 z m -1.121833,2.8956 q 0.232834,0 0.4191,-0.10583 0.1905,-0.11007 0.296334,-0.30904 0.110066,-0.19896 0.110066,-0.45296 0,-0.254 -0.110066,-0.45297 -0.105834,-0.19897 -0.296334,-0.3048 -0.186266,-0.11007 -0.4191,-0.11007 -0.237066,0 -0.427566,0.11007 -0.186267,0.10583 -0.296334,0.3048 -0.105833,0.19897 -0.105833,0.45297 0,0.254 0.105833,0.45296 0.110067,0.19897 0.296334,0.30904 0.1905,0.10583 0.427566,0.10583 z"
         style="stroke-width:0.26458332;fill:#ffffff"
         id="path822"
         inkscape:connector-curvature="0" />
      <path
         d="m 60.011771,112.43755 h 0.300567 v 2.22673 h -0.300567 z m 0.1524,-0.48683 q -0.09313,0 -0.156633,-0.0635 -0.0635,-0.0635 -0.0635,-0.1524 0,-0.0847 0.0635,-0.14817 0.0635,-0.0635 0.156633,-0.0635 0.09313,0 0.156634,0.0635 0.0635,0.0593 0.0635,0.14393 0,0.0931 -0.0635,0.15664 -0.0635,0.0635 -0.156634,0.0635 z"
         style="stroke-width:0.26458332;fill:#ffffff"
         id="path824"
         inkscape:connector-curvature="0" />
      <path
         d="m 61.18242,114.68545 q -0.09313,0 -0.160867,-0.0677 -0.0635,-0.0677 -0.0635,-0.1651 0,-0.0974 0.0635,-0.16087 0.06773,-0.0677 0.160867,-0.0677 0.09313,0 0.160866,0.0677 0.06773,0.0635 0.06773,0.16087 0,0.0974 -0.06773,0.1651 -0.06773,0.0677 -0.160866,0.0677 z"
         style="stroke-width:0.26458332;fill:#ffffff"
         id="path826"
         inkscape:connector-curvature="0" />
      <path
         d="m 64.019878,111.52315 v 3.14113 h -0.287867 v -0.44026 q -0.135466,0.22436 -0.359833,0.3429 -0.220133,0.11853 -0.499533,0.11853 -0.313267,0 -0.567267,-0.14393 -0.254,-0.14394 -0.397933,-0.40217 -0.143934,-0.25823 -0.143934,-0.58843 0,-0.3302 0.143934,-0.58844 0.143933,-0.25823 0.397933,-0.39793 0.254,-0.14393 0.567267,-0.14393 0.270933,0 0.486833,0.1143 0.220133,0.11006 0.359833,0.32596 v -1.33773 z m -1.121833,2.8956 q 0.232833,0 0.4191,-0.10583 0.1905,-0.11007 0.296333,-0.30904 0.110067,-0.19896 0.110067,-0.45296 0,-0.254 -0.110067,-0.45297 -0.105833,-0.19897 -0.296333,-0.3048 -0.186267,-0.11007 -0.4191,-0.11007 -0.237067,0 -0.427567,0.11007 -0.186267,0.10583 -0.296333,0.3048 -0.105834,0.19897 -0.105834,0.45297 0,0.254 0.105834,0.45296 0.110066,0.19897 0.296333,0.30904 0.1905,0.10583 0.427567,0.10583 z"
         style="stroke-width:0.26458332;fill:#ffffff"
         id="path828"
         inkscape:connector-curvature="0" />
      <path
         d="m 65.635886,112.42062 q 0.436033,0 0.668867,0.22013 0.232833,0.2159 0.232833,0.64347 v 1.38006 h -0.287867 v -0.34713 q -0.1016,0.17357 -0.300566,0.27093 -0.194734,0.0974 -0.465667,0.0974 -0.372533,0 -0.592666,-0.1778 -0.220134,-0.1778 -0.220134,-0.4699 0,-0.28363 0.2032,-0.4572 0.207433,-0.17357 0.656167,-0.17357 h 0.706966 v -0.13546 q 0,-0.28787 -0.160866,-0.43604 -0.160867,-0.1524 -0.4699,-0.1524 -0.211667,0 -0.4064,0.072 -0.194734,0.0677 -0.334433,0.1905 l -0.135467,-0.22437 q 0.169333,-0.14393 0.4064,-0.22013 0.237066,-0.0804 0.499533,-0.0804 z m -0.105833,2.02776 q 0.254,0 0.436033,-0.1143 0.182033,-0.11853 0.270933,-0.33866 v -0.36407 h -0.6985 q -0.5715,0 -0.5715,0.39793 0,0.19474 0.148167,0.30904 0.148167,0.11006 0.414867,0.11006 z"
         style="stroke-width:0.26458332;fill:#ffffff"
         id="path830"
         inkscape:connector-curvature="0" />
      <path
         d="m 67.353958,111.52315 h 0.300567 v 3.14113 h -0.300567 z"
         style="stroke-width:0.26458332;fill:#ffffff"
         id="path832"
         inkscape:connector-curvature="0" />
      <path
         d="m 70.526974,111.52315 v 3.14113 h -0.287866 v -0.44026 q -0.135467,0.22436 -0.359834,0.3429 -0.220133,0.11853 -0.499533,0.11853 -0.313267,0 -0.567267,-0.14393 -0.254,-0.14394 -0.397933,-0.40217 -0.143933,-0.25823 -0.143933,-0.58843 0,-0.3302 0.143933,-0.58844 0.143933,-0.25823 0.397933,-0.39793 0.254,-0.14393 0.567267,-0.14393 0.270933,0 0.486833,0.1143 0.220134,0.11006 0.359834,0.32596 v -1.33773 z m -1.121833,2.8956 q 0.232833,0 0.4191,-0.10583 0.1905,-0.11007 0.296333,-0.30904 0.110067,-0.19896 0.110067,-0.45296 0,-0.254 -0.110067,-0.45297 -0.105833,-0.19897 -0.296333,-0.3048 -0.186267,-0.11007 -0.4191,-0.11007 -0.237067,0 -0.427567,0.11007 -0.186266,0.10583 -0.296333,0.3048 -0.105833,0.19897 -0.105833,0.45297 0,0.254 0.105833,0.45296 0.110067,0.19897 0.296333,0.30904 0.1905,0.10583 0.427567,0.10583 z"
         style="stroke-width:0.26458332;fill:#ffffff"
         id="path834"
         inkscape:connector-curvature="0" />
      <path
         d="m 72.142981,112.42062 q 0.436034,0 0.668867,0.22013 0.232833,0.2159 0.232833,0.64347 v 1.38006 h -0.287866 v -0.34713 q -0.1016,0.17357 -0.300567,0.27093 -0.194733,0.0974 -0.465667,0.0974 -0.372533,0 -0.592666,-0.1778 -0.220133,-0.1778 -0.220133,-0.4699 0,-0.28363 0.2032,-0.4572 0.207433,-0.17357 0.656166,-0.17357 h 0.706967 v -0.13546 q 0,-0.28787 -0.160867,-0.43604 -0.160867,-0.1524 -0.4699,-0.1524 -0.211667,0 -0.4064,0.072 -0.194733,0.0677 -0.334433,0.1905 l -0.135467,-0.22437 q 0.169334,-0.14393 0.4064,-0.22013 0.237067,-0.0804 0.499533,-0.0804 z m -0.105833,2.02776 q 0.254,0 0.436033,-0.1143 0.182034,-0.11853 0.270934,-0.33866 v -0.36407 h -0.6985 q -0.5715,0 -0.5715,0.39793 0,0.19474 0.148166,0.30904 0.148167,0.11006 0.414867,0.11006 z"
         style="stroke-width:0.26458332;fill:#ffffff"
         id="path836"
         inkscape:connector-curvature="0" />
      <path
         d="m 73.861054,111.52315 h 0.300566 v 3.14113 h -0.300566 z"
         style="stroke-width:0.26458332;fill:#ffffff"
         id="path838"
         inkscape:connector-curvature="0" />
      <path
         d="m 75.00207,112.43755 h 0.300566 v 2.22673 H 75.00207 Z m 0.1524,-0.48683 q -0.09313,0 -0.156634,-0.0635 -0.0635,-0.0635 -0.0635,-0.1524 0,-0.0847 0.0635,-0.14817 0.0635,-0.0635 0.156634,-0.0635 0.09313,0 0.156633,0.0635 0.0635,0.0593 0.0635,0.14393 0,0.0931 -0.0635,0.15664 -0.0635,0.0635 -0.156633,0.0635 z"
         style="stroke-width:0.26458332;fill:#ffffff"
         id="path840"
         inkscape:connector-curvature="0" />
      <path
         d="m 77.921086,111.67555 q 0.567266,0 1.011766,0.23707 0.448733,0.23283 0.6985,0.6604 0.249767,0.42333 0.249767,0.96943 0,0.53763 -0.186267,0.84243 -0.186267,0.30057 -0.516467,0.30057 -0.207433,0 -0.338666,-0.12277 -0.127,-0.12276 -0.1397,-0.33866 -0.127,0.22013 -0.347133,0.3429 -0.220134,0.11853 -0.499534,0.11853 -0.296333,0 -0.537633,-0.1397 -0.237067,-0.14393 -0.376767,-0.3937 -0.135466,-0.24977 -0.135466,-0.56303 0,-0.31327 0.135466,-0.5588 0.1397,-0.24977 0.376767,-0.38947 0.2413,-0.1397 0.537633,-0.1397 0.270934,0 0.486834,0.11853 0.220133,0.1143 0.351366,0.32597 v -0.42757 h 0.275167 v 1.60444 q 0,0.16933 0.07197,0.24553 0.07197,0.0762 0.1905,0.0762 0.198967,0 0.313267,-0.23707 0.118533,-0.23706 0.118533,-0.6604 0,-0.49106 -0.220133,-0.8636 -0.220133,-0.37676 -0.618066,-0.5842 -0.3937,-0.20743 -0.9017,-0.20743 -0.512234,0 -0.910167,0.2159 -0.3937,0.21167 -0.613833,0.60113 -0.220134,0.38524 -0.220134,0.88054 0,0.4953 0.2159,0.88476 0.220134,0.38947 0.6096,0.60537 0.3937,0.2159 0.9017,0.2159 0.198967,0 0.414867,-0.0466 0.220133,-0.0466 0.397933,-0.1397 l 0.07197,0.20744 q -0.182033,0.0931 -0.423333,0.14393 -0.237067,0.0508 -0.461434,0.0508 -0.575733,0 -1.020233,-0.24553 -0.4445,-0.24554 -0.694267,-0.68157 -0.245533,-0.44027 -0.245533,-0.99483 0,-0.5588 0.249767,-0.9906 0.249766,-0.43604 0.6985,-0.67734 0.452966,-0.24553 1.0287,-0.24553 z m -0.02963,2.76437 q 0.2286,0 0.410634,-0.10584 0.182033,-0.10583 0.287866,-0.29633 0.105834,-0.19473 0.105834,-0.44873 0,-0.24977 -0.105834,-0.44027 -0.105833,-0.19473 -0.287866,-0.29633 -0.182034,-0.10584 -0.410634,-0.10584 -0.232833,0 -0.4191,0.10584 -0.182033,0.10583 -0.287866,0.29633 -0.1016,0.1905 -0.1016,0.44027 0,0.24976 0.1016,0.4445 0.105833,0.1905 0.287866,0.30056 0.186267,0.10584 0.4191,0.10584 z"
         style="stroke-width:0.26458332;fill:#ffffff"
         id="path842"
         inkscape:connector-curvature="0" />
      <path
         d="m 81.427144,114.68545 q -0.321733,0 -0.579967,-0.14393 -0.258233,-0.14817 -0.4064,-0.4064 -0.148166,-0.25824 -0.148166,-0.5842 0,-0.32597 0.148166,-0.5842 0.148167,-0.25824 0.4064,-0.40217 0.258234,-0.14393 0.579967,-0.14393 0.321733,0 0.579967,0.14393 0.258233,0.14393 0.402166,0.40217 0.148167,0.25823 0.148167,0.5842 0,0.32596 -0.148167,0.5842 -0.143933,0.25823 -0.402166,0.4064 -0.258234,0.14393 -0.579967,0.14393 z m 0,-0.2667 q 0.237067,0 0.423333,-0.10583 0.1905,-0.11007 0.296334,-0.30904 0.105833,-0.19896 0.105833,-0.45296 0,-0.254 -0.105833,-0.45297 -0.105834,-0.19897 -0.296334,-0.3048 -0.186266,-0.11007 -0.423333,-0.11007 -0.237067,0 -0.427567,0.11007 -0.186266,0.10583 -0.296333,0.3048 -0.105833,0.19897 -0.105833,0.45297 0,0.254 0.105833,0.45296 0.110067,0.19897 0.296333,0.30904 0.1905,0.10583 0.427567,0.10583 z"
         style="stroke-width:0.26458332;fill:#ffffff"
         id="path844"
         inkscape:connector-curvature="0" />
      <path
         d="m 85.17768,112.43755 v 2.22673 h -0.287867 v -0.4064 q -0.118533,0.2032 -0.325967,0.3175 -0.207433,0.11007 -0.474133,0.11007 -0.436033,0 -0.690033,-0.2413 -0.249767,-0.24553 -0.249767,-0.71543 v -1.29117 h 0.300567 v 1.26153 q 0,0.35137 0.173566,0.5334 0.173567,0.18204 0.4953,0.18204 0.351367,0 0.554567,-0.21167 0.2032,-0.2159 0.2032,-0.5969 v -1.1684 z"
         style="stroke-width:0.26458332;fill:#ffffff"
         id="path846"
         inkscape:connector-curvature="0" />
      <path
         d="m 87.196252,114.52882 q -0.08467,0.0762 -0.211667,0.11853 -0.122766,0.0381 -0.258233,0.0381 -0.313266,0 -0.4826,-0.16933 -0.169333,-0.16934 -0.169333,-0.47837 v -1.3462 h -0.397933 v -0.254 h 0.397933 v -0.48683 h 0.300567 v 0.48683 h 0.677333 v 0.254 h -0.677333 v 1.32927 q 0,0.19896 0.09737,0.3048 0.1016,0.1016 0.287867,0.1016 0.09313,0 0.1778,-0.0296 0.0889,-0.0296 0.1524,-0.0847 z"
         style="stroke-width:0.26458332;fill:#ffffff"
         id="path848"
         inkscape:connector-curvature="0" />
      <path
         d="m 87.74341,111.52315 h 0.300567 v 3.14113 H 87.74341 Z"
         style="stroke-width:0.26458332;fill:#ffffff"
         id="path850"
         inkscape:connector-curvature="0" />
      <path
         d="m 89.794591,114.68545 q -0.321733,0 -0.579967,-0.14393 -0.258233,-0.14817 -0.4064,-0.4064 -0.148166,-0.25824 -0.148166,-0.5842 0,-0.32597 0.148166,-0.5842 0.148167,-0.25824 0.4064,-0.40217 0.258234,-0.14393 0.579967,-0.14393 0.321733,0 0.579967,0.14393 0.258233,0.14393 0.402166,0.40217 0.148167,0.25823 0.148167,0.5842 0,0.32596 -0.148167,0.5842 -0.143933,0.25823 -0.402166,0.4064 -0.258234,0.14393 -0.579967,0.14393 z m 0,-0.2667 q 0.237067,0 0.423333,-0.10583 0.1905,-0.11007 0.296334,-0.30904 0.105833,-0.19896 0.105833,-0.45296 0,-0.254 -0.105833,-0.45297 -0.105834,-0.19897 -0.296334,-0.3048 -0.186266,-0.11007 -0.423333,-0.11007 -0.237067,0 -0.427567,0.11007 -0.186266,0.10583 -0.296333,0.3048 -0.105833,0.19897 -0.105833,0.45297 0,0.254 0.105833,0.45296 0.110067,0.19897 0.296333,0.30904 0.1905,0.10583 0.427567,0.10583 z"
         style="stroke-width:0.26458332;fill:#ffffff"
         id="path852"
         inkscape:connector-curvature="0" />
      <path
         d="m 92.448693,114.68545 q -0.321733,0 -0.579966,-0.14393 -0.258234,-0.14817 -0.4064,-0.4064 -0.148167,-0.25824 -0.148167,-0.5842 0,-0.32597 0.148167,-0.5842 0.148166,-0.25824 0.4064,-0.40217 0.258233,-0.14393 0.579966,-0.14393 0.321734,0 0.579967,0.14393 0.258233,0.14393 0.402167,0.40217 0.148166,0.25823 0.148166,0.5842 0,0.32596 -0.148166,0.5842 -0.143934,0.25823 -0.402167,0.4064 -0.258233,0.14393 -0.579967,0.14393 z m 0,-0.2667 q 0.237067,0 0.423334,-0.10583 0.1905,-0.11007 0.296333,-0.30904 0.105833,-0.19896 0.105833,-0.45296 0,-0.254 -0.105833,-0.45297 -0.105833,-0.19897 -0.296333,-0.3048 -0.186267,-0.11007 -0.423334,-0.11007 -0.237066,0 -0.427566,0.11007 -0.186267,0.10583 -0.296334,0.3048 -0.105833,0.19897 -0.105833,0.45297 0,0.254 0.105833,0.45296 0.110067,0.19897 0.296334,0.30904 0.1905,0.10583 0.427566,0.10583 z"
         style="stroke-width:0.26458332;fill:#ffffff"
         id="path854"
         inkscape:connector-curvature="0" />
      <path
         d="m 95.018129,113.54668 -0.524933,0.4826 v 0.635 h -0.300567 v -3.14113 h 0.300567 v 2.12937 l 1.329266,-1.21497 h 0.372534 l -0.9525,0.91017 1.0414,1.31656 h -0.3683 z"
         style="stroke-width:0.26458332;fill:#ffffff"
         id="path856"
         inkscape:connector-curvature="0" />
      <path
         d="m 96.810218,114.68545 q -0.09313,0 -0.160867,-0.0677 -0.0635,-0.0677 -0.0635,-0.1651 0,-0.0974 0.0635,-0.16087 0.06773,-0.0677 0.160867,-0.0677 0.09313,0 0.160866,0.0677 0.06773,0.0635 0.06773,0.16087 0,0.0974 -0.06773,0.1651 -0.06773,0.0677 -0.160866,0.0677 z"
         style="stroke-width:0.26458332;fill:#ffffff"
         id="path858"
         inkscape:connector-curvature="0" />
      <path
         d="m 98.538542,114.68545 q -0.3302,0 -0.592667,-0.14393 -0.258233,-0.14394 -0.4064,-0.40217 -0.148167,-0.26247 -0.148167,-0.58843 0,-0.32597 0.148167,-0.5842 0.148167,-0.25824 0.4064,-0.40217 0.262467,-0.14393 0.592667,-0.14393 0.287866,0 0.512233,0.1143 0.2286,0.11006 0.359833,0.32596 l -0.224366,0.1524 q -0.110067,-0.1651 -0.2794,-0.24553 -0.169334,-0.0847 -0.3683,-0.0847 -0.2413,0 -0.436034,0.11007 -0.1905,0.10583 -0.300566,0.3048 -0.105834,0.19897 -0.105834,0.45297 0,0.25823 0.105834,0.4572 0.110066,0.19473 0.300566,0.3048 0.194734,0.10583 0.436034,0.10583 0.198966,0 0.3683,-0.0804 0.169333,-0.0804 0.2794,-0.24554 l 0.224366,0.1524 q -0.131233,0.2159 -0.359833,0.3302 -0.2286,0.11007 -0.512233,0.11007 z"
         style="stroke-width:0.26458332;fill:#ffffff"
         id="path860"
         inkscape:connector-curvature="0" />
      <path
         d="m 100.86575,114.68545 q -0.32173,0 -0.57997,-0.14393 -0.25823,-0.14817 -0.406396,-0.4064 -0.148167,-0.25824 -0.148167,-0.5842 0,-0.32597 0.148167,-0.5842 0.148166,-0.25824 0.406396,-0.40217 0.25824,-0.14393 0.57997,-0.14393 0.32173,0 0.57997,0.14393 0.25823,0.14393 0.40216,0.40217 0.14817,0.25823 0.14817,0.5842 0,0.32596 -0.14817,0.5842 -0.14393,0.25823 -0.40216,0.4064 -0.25824,0.14393 -0.57997,0.14393 z m 0,-0.2667 q 0.23707,0 0.42333,-0.10583 0.1905,-0.11007 0.29634,-0.30904 0.10583,-0.19896 0.10583,-0.45296 0,-0.254 -0.10583,-0.45297 -0.10584,-0.19897 -0.29634,-0.3048 -0.18626,-0.11007 -0.42333,-0.11007 -0.23707,0 -0.42757,0.11007 -0.18626,0.10583 -0.29633,0.3048 -0.10583,0.19897 -0.10583,0.45297 0,0.254 0.10583,0.45296 0.11007,0.19897 0.29633,0.30904 0.1905,0.10583 0.42757,0.10583 z"
         style="stroke-width:0.26458332;fill:#ffffff"
         id="path862"
         inkscape:connector-curvature="0" />
      <path
         d="m 105.38675,112.42062 q 0.4191,0 0.65617,0.2413 0.2413,0.2413 0.2413,0.7112 v 1.29116 h -0.30057 v -1.26153 q 0,-0.34713 -0.16933,-0.52917 -0.1651,-0.18203 -0.4699,-0.18203 -0.34713,0 -0.5461,0.2159 -0.19897,0.21167 -0.19897,0.58843 v 1.1684 h -0.30056 v -1.26153 q 0,-0.34713 -0.16934,-0.52917 -0.1651,-0.18203 -0.47413,-0.18203 -0.3429,0 -0.5461,0.2159 -0.19897,0.21167 -0.19897,0.58843 v 1.1684 h -0.30056 v -2.22673 h 0.28786 v 0.4064 q 0.11854,-0.2032 0.3302,-0.31327 0.21167,-0.11006 0.48684,-0.11006 0.2794,0 0.4826,0.11853 0.20743,0.11853 0.30903,0.35137 0.12277,-0.22014 0.35137,-0.3429 0.23283,-0.127 0.52916,-0.127 z"
         style="stroke-width:0.26458332;fill:#ffffff"
         id="path864"
         inkscape:connector-curvature="0" />
    </g>
  </g>
</svg>
