<?xml version="1.0" encoding="UTF-8" standalone="no"?>
<!-- Created with Inkscape (http://www.inkscape.org/) -->

<svg
   xmlns:dc="http://purl.org/dc/elements/1.1/"
   xmlns:cc="http://creativecommons.org/ns#"
   xmlns:rdf="http://www.w3.org/1999/02/22-rdf-syntax-ns#"
   xmlns:svg="http://www.w3.org/2000/svg"
   xmlns="http://www.w3.org/2000/svg"
   xmlns:sodipodi="http://sodipodi.sourceforge.net/DTD/sodipodi-0.dtd"
   xmlns:inkscape="http://www.inkscape.org/namespaces/inkscape"
   width="44.159863mm"
   height="70.987137mm"
   viewBox="0 0 44.159863 70.987137"
   version="1.1"
   id="svg8"
   inkscape:version="0.92.3 (2405546, 2018-03-11)"
   sodipodi:docname="logo.svg">
  <defs
     id="defs2" />
  <sodipodi:namedview
     id="base"
     pagecolor="#ffffff"
     bordercolor="#666666"
     borderopacity="1.0"
     inkscape:pageopacity="0.0"
     inkscape:pageshadow="2"
     inkscape:zoom="3.3567839"
     inkscape:cx="65.473054"
     inkscape:cy="158.22455"
     inkscape:document-units="mm"
     inkscape:current-layer="layer1"
     showgrid="false"
     inkscape:window-width="1440"
     inkscape:window-height="851"
     inkscape:window-x="0"
     inkscape:window-y="25"
     inkscape:window-maximized="1"
     showguides="false"
     inkscape:guide-bbox="true"
     inkscape:snap-bbox="true"
     inkscape:object-paths="true"
     inkscape:snap-intersection-paths="true"
     inkscape:snap-smooth-nodes="true"
     inkscape:snap-global="false"
     fit-margin-top="0"
     fit-margin-left="0"
     fit-margin-right="0"
     fit-margin-bottom="0">
    <sodipodi:guide
       position="7.7532575,-6.729236"
       orientation="0,1"
       id="guide826"
       inkscape:locked="false" />
  </sodipodi:namedview>
  <metadata
     id="metadata5">
    <rdf:RDF>
      <cc:Work
         rdf:about="">
        <dc:format>image/svg+xml</dc:format>
        <dc:type
           rdf:resource="http://purl.org/dc/dcmitype/StillImage" />
        <dc:title />
      </cc:Work>
    </rdf:RDF>
  </metadata>
  <g
     inkscape:label="Layer 1"
     inkscape:groupmode="layer"
     id="layer1"
     transform="translate(-87.79615,-49.807609)">
    <path
       style="color:#000000;font-style:normal;font-variant:normal;font-weight:normal;font-stretch:normal;font-size:medium;line-height:normal;font-family:sans-serif;font-variant-ligatures:normal;font-variant-position:normal;font-variant-caps:normal;font-variant-numeric:normal;font-variant-alternates:normal;font-feature-settings:normal;text-indent:0;text-align:start;text-decoration:none;text-decoration-line:none;text-decoration-style:solid;text-decoration-color:#000000;letter-spacing:normal;word-spacing:normal;text-transform:none;writing-mode:lr-tb;direction:ltr;text-orientation:mixed;dominant-baseline:auto;baseline-shift:baseline;text-anchor:start;white-space:normal;shape-padding:0;clip-rule:nonzero;display:inline;overflow:visible;visibility:visible;opacity:1;isolation:auto;mix-blend-mode:normal;color-interpolation:sRGB;color-interpolation-filters:linearRGB;solid-color:#000000;solid-opacity:1;vector-effect:none;fill:#000000;fill-opacity:1;fill-rule:nonzero;stroke:none;stroke-width:5.29166651;stroke-linecap:round;stroke-linejoin:round;stroke-miterlimit:4;stroke-dasharray:none;stroke-dashoffset:0;stroke-opacity:1;paint-order:markers fill stroke;color-rendering:auto;image-rendering:auto;shape-rendering:auto;text-rendering:auto;enable-background:accumulate"
       d="m 90.496802,120.79403 v -5.3e-4 c 6.78603,0.006 12.335028,-5.53439 12.341358,-12.32018 l 0.004,-4.13101 c 1.99848,1.40099 4.42565,2.22848 7.03885,2.23088 h 5.3e-4 c 3.91987,0.003 7.42482,-1.84698 9.68933,-4.71651 2.25969,2.87297 5.76157,4.72864 9.68158,4.73201 3.60252,0.0787 3.60625,-5.36452 0.004,-5.29115 -3.94599,-0.003 -7.03684,-3.100844 -7.03316,-7.046599 l 0.0822,-21.068439 c 0.0662,-2.134196 -0.80164,-6.765793 -4.01733,-11.089841 -1.81122,-2.435492 -4.40387,-4.746898 -7.77162,-6.984587 l 9.0935,0.0083 c 1.48162,0.03113 2.69996,-1.160476 2.70169,-2.642418 0.002,-1.481942 -1.21381,-2.676398 -2.69549,-2.648733 l -19.56263,-0.01757 c -2.864468,-0.0013 -3.688318,3.915574 -1.066088,5.068427 8.079878,3.547078 12.606378,7.083316 15.054378,10.375077 2.448,3.291758 3.01712,6.392238 2.96168,8.185232 l -0.071,20.810436 c -0.004,3.946231 -3.10112,7.036545 -7.04712,7.033155 -3.92367,-0.003 -7.0022,-3.064429 -7.03368,-6.978378 l 0.016,-19.084107 c 0.004,-3.946218 3.09906,-7.036541 7.04505,-7.033162 2.15199,0 0.30616,-2.136042 -1.45183,-3.187169 -1.75799,-1.051126 -4.83196,-1.199638 -7.26076,1.096791 -2.428799,2.296428 -3.620137,5.57043 -3.623498,9.468861 l -0.0177,18.671095 -0.0114,14.233759 c -0.004,3.9462 -3.10113,7.03861 -7.04711,7.03523 -3.60254,-0.0788 -3.60628,5.36449 -0.004,5.29115 z"
       id="rect844-6"
       inkscape:connector-curvature="0"
       sodipodi:nodetypes="ccccccccccccccscccscccccczzcccccc" />
  </g>
</svg>
